<mxfile host="app.diagrams.net" agent="Mozilla/5.0 (Windows NT 10.0; Win64; x64; rv:94.0) Gecko/20100101 Firefox/94.0" version="24.7.14">
  <diagram name="Página-1" id="yOcHo--prausVHHz4oxQ">
    <mxGraphModel dx="1745" dy="578" grid="1" gridSize="10" guides="1" tooltips="1" connect="1" arrows="1" fold="1" page="1" pageScale="1" pageWidth="827" pageHeight="1169" math="0" shadow="0">
      <root>
        <mxCell id="0" />
        <mxCell id="1" parent="0" />
        <mxCell id="Kue1RRkqiT16hmbLM7EP-29" value="ALUNO" style="rounded=0;whiteSpace=wrap;html=1;" vertex="1" parent="1">
          <mxGeometry x="330" y="850" width="100" height="40" as="geometry" />
        </mxCell>
        <mxCell id="Kue1RRkqiT16hmbLM7EP-30" value="Nome" style="ellipse;whiteSpace=wrap;html=1;" vertex="1" parent="1">
          <mxGeometry x="230" y="845" width="70" height="40" as="geometry" />
        </mxCell>
        <mxCell id="Kue1RRkqiT16hmbLM7EP-31" value="Sexo" style="ellipse;whiteSpace=wrap;html=1;" vertex="1" parent="1">
          <mxGeometry x="250" y="900" width="70" height="40" as="geometry" />
        </mxCell>
        <mxCell id="Kue1RRkqiT16hmbLM7EP-36" value="DataNasc" style="ellipse;whiteSpace=wrap;html=1;" vertex="1" parent="1">
          <mxGeometry x="335" y="920" width="70" height="40" as="geometry" />
        </mxCell>
        <mxCell id="Kue1RRkqiT16hmbLM7EP-37" value="Idade" style="ellipse;whiteSpace=wrap;html=1;align=center;dashed=1;" vertex="1" parent="1">
          <mxGeometry x="430" y="910" width="100" height="40" as="geometry" />
        </mxCell>
        <mxCell id="Kue1RRkqiT16hmbLM7EP-38" value="NumTelef" style="ellipse;shape=doubleEllipse;margin=3;whiteSpace=wrap;html=1;align=center;" vertex="1" parent="1">
          <mxGeometry x="364" y="760" width="100" height="40" as="geometry" />
        </mxCell>
        <mxCell id="Kue1RRkqiT16hmbLM7EP-39" value="NumMec" style="ellipse;whiteSpace=wrap;html=1;align=center;fontStyle=4;" vertex="1" parent="1">
          <mxGeometry x="244" y="780" width="100" height="40" as="geometry" />
        </mxCell>
        <mxCell id="Kue1RRkqiT16hmbLM7EP-40" value="Habilitação" style="ellipse;shape=doubleEllipse;margin=3;whiteSpace=wrap;html=1;align=center;" vertex="1" parent="1">
          <mxGeometry x="480" y="790" width="100" height="40" as="geometry" />
        </mxCell>
        <mxCell id="Kue1RRkqiT16hmbLM7EP-42" value="Morada" style="ellipse;whiteSpace=wrap;html=1;align=center;" vertex="1" parent="1">
          <mxGeometry x="510" y="850" width="100" height="40" as="geometry" />
        </mxCell>
        <mxCell id="Kue1RRkqiT16hmbLM7EP-43" value="Rua" style="ellipse;whiteSpace=wrap;html=1;align=center;" vertex="1" parent="1">
          <mxGeometry x="640" y="810" width="70" height="30" as="geometry" />
        </mxCell>
        <mxCell id="Kue1RRkqiT16hmbLM7EP-44" value="Num" style="ellipse;whiteSpace=wrap;html=1;align=center;" vertex="1" parent="1">
          <mxGeometry x="640" y="850" width="70" height="30" as="geometry" />
        </mxCell>
        <mxCell id="Kue1RRkqiT16hmbLM7EP-45" value="Andar?" style="ellipse;whiteSpace=wrap;html=1;align=center;" vertex="1" parent="1">
          <mxGeometry x="630" y="890" width="70" height="30" as="geometry" />
        </mxCell>
        <mxCell id="Kue1RRkqiT16hmbLM7EP-46" value="Localidade" style="ellipse;whiteSpace=wrap;html=1;align=center;" vertex="1" parent="1">
          <mxGeometry x="620" y="940" width="70" height="30" as="geometry" />
        </mxCell>
        <mxCell id="Kue1RRkqiT16hmbLM7EP-47" value="CodPostal" style="ellipse;whiteSpace=wrap;html=1;align=center;" vertex="1" parent="1">
          <mxGeometry x="540" y="950" width="70" height="30" as="geometry" />
        </mxCell>
        <mxCell id="Kue1RRkqiT16hmbLM7EP-48" value="Instituição" style="ellipse;whiteSpace=wrap;html=1;align=center;" vertex="1" parent="1">
          <mxGeometry x="590" y="730" width="100" height="40" as="geometry" />
        </mxCell>
        <mxCell id="Kue1RRkqiT16hmbLM7EP-49" value="Ano" style="ellipse;whiteSpace=wrap;html=1;align=center;" vertex="1" parent="1">
          <mxGeometry x="530" y="680" width="100" height="40" as="geometry" />
        </mxCell>
        <mxCell id="Kue1RRkqiT16hmbLM7EP-50" value="Grau" style="ellipse;whiteSpace=wrap;html=1;align=center;" vertex="1" parent="1">
          <mxGeometry x="414" y="660" width="100" height="40" as="geometry" />
        </mxCell>
        <mxCell id="Kue1RRkqiT16hmbLM7EP-52" value="" style="endArrow=none;html=1;rounded=0;exitX=0.265;exitY=0.915;exitDx=0;exitDy=0;exitPerimeter=0;entryX=1;entryY=0;entryDx=0;entryDy=0;" edge="1" parent="1" source="Kue1RRkqiT16hmbLM7EP-48" target="Kue1RRkqiT16hmbLM7EP-40">
          <mxGeometry width="50" height="50" relative="1" as="geometry">
            <mxPoint x="370" y="840" as="sourcePoint" />
            <mxPoint x="420" y="790" as="targetPoint" />
          </mxGeometry>
        </mxCell>
        <mxCell id="Kue1RRkqiT16hmbLM7EP-53" value="" style="endArrow=none;html=1;rounded=0;exitX=0.427;exitY=1.05;exitDx=0;exitDy=0;exitPerimeter=0;entryX=0.658;entryY=0.05;entryDx=0;entryDy=0;entryPerimeter=0;" edge="1" parent="1" source="Kue1RRkqiT16hmbLM7EP-49" target="Kue1RRkqiT16hmbLM7EP-40">
          <mxGeometry width="50" height="50" relative="1" as="geometry">
            <mxPoint x="370" y="840" as="sourcePoint" />
            <mxPoint x="420" y="790" as="targetPoint" />
          </mxGeometry>
        </mxCell>
        <mxCell id="Kue1RRkqiT16hmbLM7EP-54" value="" style="endArrow=none;html=1;rounded=0;entryX=0.5;entryY=1;entryDx=0;entryDy=0;exitX=0.5;exitY=0;exitDx=0;exitDy=0;" edge="1" parent="1" source="Kue1RRkqiT16hmbLM7EP-40" target="Kue1RRkqiT16hmbLM7EP-50">
          <mxGeometry width="50" height="50" relative="1" as="geometry">
            <mxPoint x="370" y="840" as="sourcePoint" />
            <mxPoint x="420" y="790" as="targetPoint" />
          </mxGeometry>
        </mxCell>
        <mxCell id="Kue1RRkqiT16hmbLM7EP-55" value="" style="endArrow=none;html=1;rounded=0;exitX=0;exitY=0.5;exitDx=0;exitDy=0;entryX=1;entryY=0;entryDx=0;entryDy=0;" edge="1" parent="1" source="Kue1RRkqiT16hmbLM7EP-43" target="Kue1RRkqiT16hmbLM7EP-42">
          <mxGeometry width="50" height="50" relative="1" as="geometry">
            <mxPoint x="370" y="840" as="sourcePoint" />
            <mxPoint x="420" y="790" as="targetPoint" />
          </mxGeometry>
        </mxCell>
        <mxCell id="Kue1RRkqiT16hmbLM7EP-56" value="" style="endArrow=none;html=1;rounded=0;entryX=0;entryY=0.5;entryDx=0;entryDy=0;exitX=1;exitY=0.5;exitDx=0;exitDy=0;" edge="1" parent="1" source="Kue1RRkqiT16hmbLM7EP-42" target="Kue1RRkqiT16hmbLM7EP-44">
          <mxGeometry width="50" height="50" relative="1" as="geometry">
            <mxPoint x="370" y="840" as="sourcePoint" />
            <mxPoint x="420" y="790" as="targetPoint" />
          </mxGeometry>
        </mxCell>
        <mxCell id="Kue1RRkqiT16hmbLM7EP-57" value="" style="endArrow=none;html=1;rounded=0;exitX=0;exitY=0.5;exitDx=0;exitDy=0;entryX=0.904;entryY=0.762;entryDx=0;entryDy=0;entryPerimeter=0;" edge="1" parent="1" source="Kue1RRkqiT16hmbLM7EP-45" target="Kue1RRkqiT16hmbLM7EP-42">
          <mxGeometry width="50" height="50" relative="1" as="geometry">
            <mxPoint x="370" y="840" as="sourcePoint" />
            <mxPoint x="420" y="790" as="targetPoint" />
          </mxGeometry>
        </mxCell>
        <mxCell id="Kue1RRkqiT16hmbLM7EP-58" value="" style="endArrow=none;html=1;rounded=0;exitX=0.5;exitY=0;exitDx=0;exitDy=0;entryX=0.688;entryY=1.012;entryDx=0;entryDy=0;entryPerimeter=0;" edge="1" parent="1" source="Kue1RRkqiT16hmbLM7EP-46" target="Kue1RRkqiT16hmbLM7EP-42">
          <mxGeometry width="50" height="50" relative="1" as="geometry">
            <mxPoint x="370" y="840" as="sourcePoint" />
            <mxPoint x="420" y="790" as="targetPoint" />
          </mxGeometry>
        </mxCell>
        <mxCell id="Kue1RRkqiT16hmbLM7EP-59" value="" style="endArrow=none;html=1;rounded=0;entryX=0.5;entryY=0;entryDx=0;entryDy=0;exitX=0.5;exitY=1;exitDx=0;exitDy=0;" edge="1" parent="1" source="Kue1RRkqiT16hmbLM7EP-42" target="Kue1RRkqiT16hmbLM7EP-47">
          <mxGeometry width="50" height="50" relative="1" as="geometry">
            <mxPoint x="470" y="1020" as="sourcePoint" />
            <mxPoint x="520" y="970" as="targetPoint" />
          </mxGeometry>
        </mxCell>
        <mxCell id="Kue1RRkqiT16hmbLM7EP-60" value="" style="endArrow=none;html=1;rounded=0;exitX=0.5;exitY=0;exitDx=0;exitDy=0;entryX=1;entryY=1;entryDx=0;entryDy=0;" edge="1" parent="1" source="Kue1RRkqiT16hmbLM7EP-37" target="Kue1RRkqiT16hmbLM7EP-29">
          <mxGeometry width="50" height="50" relative="1" as="geometry">
            <mxPoint x="370" y="840" as="sourcePoint" />
            <mxPoint x="420" y="790" as="targetPoint" />
          </mxGeometry>
        </mxCell>
        <mxCell id="Kue1RRkqiT16hmbLM7EP-61" value="" style="endArrow=none;html=1;rounded=0;entryX=1;entryY=0;entryDx=0;entryDy=0;exitX=0;exitY=1;exitDx=0;exitDy=0;" edge="1" parent="1" source="Kue1RRkqiT16hmbLM7EP-29" target="Kue1RRkqiT16hmbLM7EP-31">
          <mxGeometry width="50" height="50" relative="1" as="geometry">
            <mxPoint x="269" y="1000" as="sourcePoint" />
            <mxPoint x="319" y="950" as="targetPoint" />
          </mxGeometry>
        </mxCell>
        <mxCell id="Kue1RRkqiT16hmbLM7EP-62" value="" style="endArrow=none;html=1;rounded=0;entryX=1;entryY=0.5;entryDx=0;entryDy=0;exitX=0;exitY=0.5;exitDx=0;exitDy=0;" edge="1" parent="1" source="Kue1RRkqiT16hmbLM7EP-29" target="Kue1RRkqiT16hmbLM7EP-30">
          <mxGeometry width="50" height="50" relative="1" as="geometry">
            <mxPoint x="270" y="1000" as="sourcePoint" />
            <mxPoint x="320" y="950" as="targetPoint" />
          </mxGeometry>
        </mxCell>
        <mxCell id="Kue1RRkqiT16hmbLM7EP-63" value="" style="endArrow=none;html=1;rounded=0;entryX=0;entryY=1;entryDx=0;entryDy=0;exitX=0.5;exitY=0;exitDx=0;exitDy=0;" edge="1" parent="1" source="Kue1RRkqiT16hmbLM7EP-29" target="Kue1RRkqiT16hmbLM7EP-40">
          <mxGeometry width="50" height="50" relative="1" as="geometry">
            <mxPoint x="370" y="840" as="sourcePoint" />
            <mxPoint x="420" y="790" as="targetPoint" />
          </mxGeometry>
        </mxCell>
        <mxCell id="Kue1RRkqiT16hmbLM7EP-64" value="" style="endArrow=none;html=1;rounded=0;exitX=0.5;exitY=1;exitDx=0;exitDy=0;entryX=0.5;entryY=0;entryDx=0;entryDy=0;" edge="1" parent="1" source="Kue1RRkqiT16hmbLM7EP-39" target="Kue1RRkqiT16hmbLM7EP-29">
          <mxGeometry width="50" height="50" relative="1" as="geometry">
            <mxPoint x="370" y="840" as="sourcePoint" />
            <mxPoint x="420" y="790" as="targetPoint" />
          </mxGeometry>
        </mxCell>
        <mxCell id="Kue1RRkqiT16hmbLM7EP-65" value="" style="endArrow=none;html=1;rounded=0;exitX=0.5;exitY=0;exitDx=0;exitDy=0;entryX=0.5;entryY=1;entryDx=0;entryDy=0;" edge="1" parent="1" source="Kue1RRkqiT16hmbLM7EP-29" target="Kue1RRkqiT16hmbLM7EP-38">
          <mxGeometry width="50" height="50" relative="1" as="geometry">
            <mxPoint x="414" y="850" as="sourcePoint" />
            <mxPoint x="464" y="800" as="targetPoint" />
          </mxGeometry>
        </mxCell>
        <mxCell id="Kue1RRkqiT16hmbLM7EP-66" value="" style="endArrow=none;html=1;rounded=0;entryX=1;entryY=0.5;entryDx=0;entryDy=0;exitX=0;exitY=0.5;exitDx=0;exitDy=0;" edge="1" parent="1" source="Kue1RRkqiT16hmbLM7EP-42" target="Kue1RRkqiT16hmbLM7EP-29">
          <mxGeometry width="50" height="50" relative="1" as="geometry">
            <mxPoint x="439" y="890" as="sourcePoint" />
            <mxPoint x="489" y="840" as="targetPoint" />
          </mxGeometry>
        </mxCell>
        <mxCell id="Kue1RRkqiT16hmbLM7EP-67" value="" style="endArrow=none;html=1;rounded=0;entryX=0.5;entryY=1;entryDx=0;entryDy=0;exitX=0.5;exitY=0;exitDx=0;exitDy=0;" edge="1" parent="1" source="Kue1RRkqiT16hmbLM7EP-36" target="Kue1RRkqiT16hmbLM7EP-29">
          <mxGeometry width="50" height="50" relative="1" as="geometry">
            <mxPoint x="405" y="920" as="sourcePoint" />
            <mxPoint x="455" y="870" as="targetPoint" />
          </mxGeometry>
        </mxCell>
        <mxCell id="Kue1RRkqiT16hmbLM7EP-68" value="ESCOLA" style="rounded=0;whiteSpace=wrap;html=1;" vertex="1" parent="1">
          <mxGeometry x="110" y="1050" width="80" height="40" as="geometry" />
        </mxCell>
        <mxCell id="Kue1RRkqiT16hmbLM7EP-69" value="CURSO" style="rounded=0;whiteSpace=wrap;html=1;" vertex="1" parent="1">
          <mxGeometry x="480" y="1050" width="90" height="40" as="geometry" />
        </mxCell>
        <mxCell id="Kue1RRkqiT16hmbLM7EP-71" value="Nome" style="ellipse;whiteSpace=wrap;html=1;" vertex="1" parent="1">
          <mxGeometry x="30" y="1090" width="70" height="40" as="geometry" />
        </mxCell>
        <mxCell id="Kue1RRkqiT16hmbLM7EP-72" value="CodEscola" style="ellipse;whiteSpace=wrap;html=1;" vertex="1" parent="1">
          <mxGeometry x="30" y="1010" width="70" height="40" as="geometry" />
        </mxCell>
        <mxCell id="Kue1RRkqiT16hmbLM7EP-73" value="Telefone" style="ellipse;shape=doubleEllipse;margin=3;whiteSpace=wrap;html=1;align=center;" vertex="1" parent="1">
          <mxGeometry x="235" y="1050" width="100" height="40" as="geometry" />
        </mxCell>
        <mxCell id="Kue1RRkqiT16hmbLM7EP-74" value="Morada" style="ellipse;whiteSpace=wrap;html=1;align=center;" vertex="1" parent="1">
          <mxGeometry x="110" y="1169" width="100" height="40" as="geometry" />
        </mxCell>
        <mxCell id="Kue1RRkqiT16hmbLM7EP-75" value="Rua" style="ellipse;whiteSpace=wrap;html=1;align=center;" vertex="1" parent="1">
          <mxGeometry x="230" y="1240" width="70" height="30" as="geometry" />
        </mxCell>
        <mxCell id="Kue1RRkqiT16hmbLM7EP-76" value="Num" style="ellipse;whiteSpace=wrap;html=1;align=center;" vertex="1" parent="1">
          <mxGeometry x="160" y="1270" width="70" height="30" as="geometry" />
        </mxCell>
        <mxCell id="Kue1RRkqiT16hmbLM7EP-78" value="CodPostal" style="ellipse;whiteSpace=wrap;html=1;align=center;" vertex="1" parent="1">
          <mxGeometry x="70" y="1260" width="70" height="30" as="geometry" />
        </mxCell>
        <mxCell id="Kue1RRkqiT16hmbLM7EP-79" value="Localidade" style="ellipse;whiteSpace=wrap;html=1;align=center;" vertex="1" parent="1">
          <mxGeometry x="10" y="1209" width="70" height="30" as="geometry" />
        </mxCell>
        <mxCell id="Kue1RRkqiT16hmbLM7EP-80" value="Pais" style="ellipse;whiteSpace=wrap;html=1;align=center;" vertex="1" parent="1">
          <mxGeometry x="259" y="1179" width="70" height="30" as="geometry" />
        </mxCell>
        <mxCell id="Kue1RRkqiT16hmbLM7EP-83" value="CodCurso" style="ellipse;whiteSpace=wrap;html=1;" vertex="1" parent="1">
          <mxGeometry x="440" y="1129" width="70" height="40" as="geometry" />
        </mxCell>
        <mxCell id="Kue1RRkqiT16hmbLM7EP-84" value="Nome" style="ellipse;whiteSpace=wrap;html=1;" vertex="1" parent="1">
          <mxGeometry x="530" y="1129" width="70" height="40" as="geometry" />
        </mxCell>
        <mxCell id="Kue1RRkqiT16hmbLM7EP-85" value="Disciplinas" style="ellipse;shape=doubleEllipse;margin=3;whiteSpace=wrap;html=1;align=center;" vertex="1" parent="1">
          <mxGeometry x="620" y="1100" width="100" height="40" as="geometry" />
        </mxCell>
        <mxCell id="Kue1RRkqiT16hmbLM7EP-86" value="Activo" style="ellipse;whiteSpace=wrap;html=1;align=center;" vertex="1" parent="1">
          <mxGeometry x="630" y="1050" width="70" height="30" as="geometry" />
        </mxCell>
        <mxCell id="Kue1RRkqiT16hmbLM7EP-88" value="" style="endArrow=none;html=1;rounded=0;exitX=0.5;exitY=0;exitDx=0;exitDy=0;entryX=0;entryY=0.5;entryDx=0;entryDy=0;" edge="1" parent="1" source="Kue1RRkqiT16hmbLM7EP-79" target="Kue1RRkqiT16hmbLM7EP-74">
          <mxGeometry width="50" height="50" relative="1" as="geometry">
            <mxPoint x="370" y="1120" as="sourcePoint" />
            <mxPoint x="420" y="1070" as="targetPoint" />
          </mxGeometry>
        </mxCell>
        <mxCell id="Kue1RRkqiT16hmbLM7EP-89" value="" style="endArrow=none;html=1;rounded=0;exitX=0.5;exitY=0;exitDx=0;exitDy=0;entryX=0;entryY=1;entryDx=0;entryDy=0;" edge="1" parent="1" source="Kue1RRkqiT16hmbLM7EP-78" target="Kue1RRkqiT16hmbLM7EP-74">
          <mxGeometry width="50" height="50" relative="1" as="geometry">
            <mxPoint x="370" y="1120" as="sourcePoint" />
            <mxPoint x="420" y="1070" as="targetPoint" />
          </mxGeometry>
        </mxCell>
        <mxCell id="Kue1RRkqiT16hmbLM7EP-90" value="" style="endArrow=none;html=1;rounded=0;exitX=0.5;exitY=0;exitDx=0;exitDy=0;entryX=0.5;entryY=1;entryDx=0;entryDy=0;" edge="1" parent="1" source="Kue1RRkqiT16hmbLM7EP-76" target="Kue1RRkqiT16hmbLM7EP-74">
          <mxGeometry width="50" height="50" relative="1" as="geometry">
            <mxPoint x="370" y="1120" as="sourcePoint" />
            <mxPoint x="420" y="1070" as="targetPoint" />
          </mxGeometry>
        </mxCell>
        <mxCell id="Kue1RRkqiT16hmbLM7EP-91" value="" style="endArrow=none;html=1;rounded=0;exitX=0;exitY=0;exitDx=0;exitDy=0;entryX=1;entryY=1;entryDx=0;entryDy=0;" edge="1" parent="1" source="Kue1RRkqiT16hmbLM7EP-75" target="Kue1RRkqiT16hmbLM7EP-74">
          <mxGeometry width="50" height="50" relative="1" as="geometry">
            <mxPoint x="370" y="1120" as="sourcePoint" />
            <mxPoint x="420" y="1070" as="targetPoint" />
          </mxGeometry>
        </mxCell>
        <mxCell id="Kue1RRkqiT16hmbLM7EP-92" value="" style="endArrow=none;html=1;rounded=0;exitX=1;exitY=0.5;exitDx=0;exitDy=0;entryX=0;entryY=0.5;entryDx=0;entryDy=0;" edge="1" parent="1" source="Kue1RRkqiT16hmbLM7EP-74" target="Kue1RRkqiT16hmbLM7EP-80">
          <mxGeometry width="50" height="50" relative="1" as="geometry">
            <mxPoint x="370" y="1120" as="sourcePoint" />
            <mxPoint x="420" y="1070" as="targetPoint" />
          </mxGeometry>
        </mxCell>
        <mxCell id="Kue1RRkqiT16hmbLM7EP-93" value="" style="endArrow=none;html=1;rounded=0;entryX=0.5;entryY=1;entryDx=0;entryDy=0;exitX=0.5;exitY=0;exitDx=0;exitDy=0;" edge="1" parent="1" source="Kue1RRkqiT16hmbLM7EP-74" target="Kue1RRkqiT16hmbLM7EP-68">
          <mxGeometry width="50" height="50" relative="1" as="geometry">
            <mxPoint x="370" y="1120" as="sourcePoint" />
            <mxPoint x="420" y="1070" as="targetPoint" />
          </mxGeometry>
        </mxCell>
        <mxCell id="Kue1RRkqiT16hmbLM7EP-94" value="" style="endArrow=none;html=1;rounded=0;exitX=0.5;exitY=1;exitDx=0;exitDy=0;entryX=1;entryY=1;entryDx=0;entryDy=0;" edge="1" parent="1" source="Kue1RRkqiT16hmbLM7EP-73" target="Kue1RRkqiT16hmbLM7EP-68">
          <mxGeometry width="50" height="50" relative="1" as="geometry">
            <mxPoint x="370" y="1120" as="sourcePoint" />
            <mxPoint x="420" y="1070" as="targetPoint" />
          </mxGeometry>
        </mxCell>
        <mxCell id="Kue1RRkqiT16hmbLM7EP-95" value="" style="endArrow=none;html=1;rounded=0;exitX=1;exitY=0.5;exitDx=0;exitDy=0;entryX=0.5;entryY=1;entryDx=0;entryDy=0;" edge="1" parent="1" source="Kue1RRkqiT16hmbLM7EP-71" target="Kue1RRkqiT16hmbLM7EP-68">
          <mxGeometry width="50" height="50" relative="1" as="geometry">
            <mxPoint x="370" y="1120" as="sourcePoint" />
            <mxPoint x="420" y="1070" as="targetPoint" />
          </mxGeometry>
        </mxCell>
        <mxCell id="Kue1RRkqiT16hmbLM7EP-96" value="" style="endArrow=none;html=1;rounded=0;entryX=1;entryY=0.5;entryDx=0;entryDy=0;exitX=0.39;exitY=0.031;exitDx=0;exitDy=0;exitPerimeter=0;" edge="1" parent="1" source="Kue1RRkqiT16hmbLM7EP-68" target="Kue1RRkqiT16hmbLM7EP-72">
          <mxGeometry width="50" height="50" relative="1" as="geometry">
            <mxPoint x="370" y="1120" as="sourcePoint" />
            <mxPoint x="420" y="1070" as="targetPoint" />
          </mxGeometry>
        </mxCell>
        <mxCell id="Kue1RRkqiT16hmbLM7EP-97" value="" style="endArrow=none;html=1;rounded=0;exitX=0;exitY=0.5;exitDx=0;exitDy=0;entryX=1;entryY=0.25;entryDx=0;entryDy=0;" edge="1" parent="1" source="Kue1RRkqiT16hmbLM7EP-86" target="Kue1RRkqiT16hmbLM7EP-69">
          <mxGeometry width="50" height="50" relative="1" as="geometry">
            <mxPoint x="370" y="1120" as="sourcePoint" />
            <mxPoint x="420" y="1070" as="targetPoint" />
          </mxGeometry>
        </mxCell>
        <mxCell id="Kue1RRkqiT16hmbLM7EP-98" value="" style="endArrow=none;html=1;rounded=0;entryX=0.5;entryY=0;entryDx=0;entryDy=0;exitX=1;exitY=0.75;exitDx=0;exitDy=0;" edge="1" parent="1" source="Kue1RRkqiT16hmbLM7EP-69" target="Kue1RRkqiT16hmbLM7EP-85">
          <mxGeometry width="50" height="50" relative="1" as="geometry">
            <mxPoint x="370" y="1120" as="sourcePoint" />
            <mxPoint x="420" y="1070" as="targetPoint" />
          </mxGeometry>
        </mxCell>
        <mxCell id="Kue1RRkqiT16hmbLM7EP-99" value="" style="endArrow=none;html=1;rounded=0;entryX=0.5;entryY=0;entryDx=0;entryDy=0;exitX=0.75;exitY=1;exitDx=0;exitDy=0;" edge="1" parent="1" source="Kue1RRkqiT16hmbLM7EP-69" target="Kue1RRkqiT16hmbLM7EP-84">
          <mxGeometry width="50" height="50" relative="1" as="geometry">
            <mxPoint x="370" y="1120" as="sourcePoint" />
            <mxPoint x="420" y="1070" as="targetPoint" />
          </mxGeometry>
        </mxCell>
        <mxCell id="Kue1RRkqiT16hmbLM7EP-100" value="" style="endArrow=none;html=1;rounded=0;entryX=0.5;entryY=0;entryDx=0;entryDy=0;exitX=0.5;exitY=1;exitDx=0;exitDy=0;" edge="1" parent="1" source="Kue1RRkqiT16hmbLM7EP-69" target="Kue1RRkqiT16hmbLM7EP-83">
          <mxGeometry width="50" height="50" relative="1" as="geometry">
            <mxPoint x="370" y="1120" as="sourcePoint" />
            <mxPoint x="420" y="1070" as="targetPoint" />
          </mxGeometry>
        </mxCell>
        <mxCell id="Kue1RRkqiT16hmbLM7EP-101" value="&lt;div&gt;WERTOWIUETYTYRUIEOWEIURTYWOEIRUTYOWOEIURYTOWIUERYYYTRUEISLDKFJGHDSLFKGJHDIHsldkfjx.c,vmbn,,,,mvnv,mbn.gjhkjghkljfghklgçdjhçkldjfçlhkfjçhjdçlhkjdçflkhjçdfkhjkdjhçkjdfhçkjfghkjfdkjhkgfhkfghklllllllkmlkmllkmllkmllkmlmlmlkmlkmlkmlllllllllllkmlkmlkllllkmlkmklkmlkmlkkkkm&lt;/div&gt;&lt;div&gt;&lt;br&gt;&lt;/div&gt;&lt;div&gt;&lt;br&gt;&lt;/div&gt;&lt;div&gt;&lt;br&gt;&lt;/div&gt;&lt;div&gt;&lt;br&gt;&lt;/div&gt;&lt;div&gt;&lt;br&gt;&lt;/div&gt;&lt;div&gt;&lt;br&gt;&lt;/div&gt;&lt;div&gt;&lt;br&gt;&lt;/div&gt;&lt;div&gt;&lt;br&gt;&lt;/div&gt;&lt;div&gt;&lt;br&gt;&lt;/div&gt;&lt;div&gt;&lt;br&gt;&lt;/div&gt;&lt;div&gt;&lt;br&gt;&lt;/div&gt;&lt;div&gt;&lt;br&gt;&lt;/div&gt;&lt;div&gt;&lt;br&gt;&lt;/div&gt;&lt;div&gt;&lt;br&gt;&lt;/div&gt;&lt;div&gt;&lt;br&gt;&lt;/div&gt;&lt;div&gt;&lt;br&gt;&lt;/div&gt;&lt;div&gt;&lt;br&gt;&lt;/div&gt;&lt;div&gt;&lt;br&gt;&lt;/div&gt;&lt;div&gt;&lt;br&gt;&lt;/div&gt;&lt;div&gt;&lt;br&gt;&lt;/div&gt;&lt;div&gt;&lt;br&gt;&lt;/div&gt;&lt;div&gt;&lt;br&gt;&lt;/div&gt;&lt;div&gt;&lt;br&gt;&lt;/div&gt;&lt;div&gt;&lt;br&gt;&lt;/div&gt;&lt;div&gt;&lt;br&gt;&lt;/div&gt;&lt;div&gt;&lt;br&gt;&lt;/div&gt;&lt;div&gt;&lt;br&gt;&lt;/div&gt;&lt;div&gt;&lt;br&gt;&lt;/div&gt;&lt;div&gt;&lt;br&gt;&lt;/div&gt;&lt;div&gt;&lt;br&gt;&lt;/div&gt;&lt;div&gt;&lt;br&gt;&lt;/div&gt;&lt;div&gt;&lt;br&gt;&lt;/div&gt;&lt;div&gt;&lt;br&gt;&lt;/div&gt;&lt;div&gt;&lt;br&gt;&lt;/div&gt;&lt;div&gt;&lt;br&gt;&lt;/div&gt;&lt;div&gt;&lt;br&gt;&lt;/div&gt;&lt;div&gt;&lt;br&gt;&lt;/div&gt;&lt;div&gt;&lt;br&gt;&lt;/div&gt;&lt;div&gt;&lt;br&gt;&lt;/div&gt;&lt;div&gt;&lt;br&gt;&lt;/div&gt;&lt;div&gt;&lt;br&gt;&lt;/div&gt;&lt;div&gt;&lt;br&gt;&lt;/div&gt;&lt;div&gt;&lt;br&gt;&lt;/div&gt;&lt;div&gt;&lt;br&gt;&lt;/div&gt;&lt;div&gt;&lt;br&gt;&lt;/div&gt;&lt;div&gt;&lt;br&gt;&lt;/div&gt;&lt;div&gt;&lt;br&gt;&lt;/div&gt;&lt;div&gt;&lt;br&gt;&lt;/div&gt;&lt;div&gt;&lt;br&gt;&lt;/div&gt;&lt;div&gt;&lt;br&gt;&lt;/div&gt;&lt;div&gt;&lt;br&gt;&lt;/div&gt;&lt;div&gt;&lt;br&gt;&lt;/div&gt;&lt;div&gt;lllllllllll,........lll,&amp;nbsp; eiriuteiyityrueeuriteuyiteuytuireuitertetieyterityeuirieruitieruteiteytieiuyteiruieurtyieuryiuyt-------ççççlçlklkjkjhjhg99999999987987&lt;/div&gt;" style="rhombus;whiteSpace=wrap;html=1;" vertex="1" parent="1">
          <mxGeometry x="350" y="1050" width="80" height="80" as="geometry" />
        </mxCell>
      </root>
    </mxGraphModel>
  </diagram>
</mxfile>
